<svg xmlns="http://www.w3.org/2000/svg" width="16" height="16" viewBox="0 0 16 16" fill="none">
<path fill-rule="evenodd" clip-rule="evenodd" d="M4.66699 0.666687C5.03518 0.666687 5.33366 0.965164 5.33366 1.33335V2.00002H10.667V1.33335C10.667 0.965164 10.9655 0.666687 11.3337 0.666687C11.7018 0.666687 12.0003 0.965164 12.0003 1.33335V2.00002H13.3337C14.4382 2.00002 15.3337 2.89545 15.3337 4.00002V12.6667C15.3337 13.7713 14.4382 14.6667 13.3337 14.6667H2.66699C1.56242 14.6667 0.666992 13.7713 0.666992 12.6667V4.00002C0.666992 2.89545 1.56242 2.00002 2.66699 2.00002H4.00033V1.33335C4.00033 0.965164 4.2988 0.666687 4.66699 0.666687ZM2.66699 3.33335C2.2988 3.33335 2.00033 3.63183 2.00033 4.00002V5.33335H14.0003V4.00002C14.0003 3.63183 13.7018 3.33335 13.3337 3.33335H2.66699ZM14.0003 6.66669H2.00033V12.6667C2.00033 13.0349 2.2988 13.3334 2.66699 13.3334H13.3337C13.7018 13.3334 14.0003 13.0349 14.0003 12.6667V6.66669Z" fill="#007CFF"/>
</svg>